<?xml version="1.0" encoding="UTF-8"?><svg xmlns="http://www.w3.org/2000/svg" width="152.22" height="49.05" xmlns:xlink="http://www.w3.org/1999/xlink" viewBox="0 0 152.22 49.05"><defs><style>.cls-1{fill:url(#linear-gradient-14);}.cls-2{fill:url(#linear-gradient-6);}.cls-3{isolation:isolate;}.cls-4{fill:url(#linear-gradient-11);}.cls-5{fill:url(#linear-gradient-10);}.cls-6{fill:url(#linear-gradient);}.cls-6,.cls-7,.cls-8,.cls-9{fill-rule:evenodd;}.cls-6,.cls-9{mix-blend-mode:multiply;opacity:.4;}.cls-7{fill:#467ebe;}.cls-10{fill:url(#linear-gradient-5);}.cls-8{fill:#487ebc;}.cls-9{fill:url(#linear-gradient-2);}.cls-11{fill:url(#linear-gradient-7);}.cls-12{fill:url(#linear-gradient-9);}.cls-13{fill:url(#linear-gradient-3);}.cls-14{fill:url(#linear-gradient-4);}.cls-15{fill:url(#linear-gradient-8);}.cls-16{fill:url(#linear-gradient-12);}.cls-17{fill:url(#linear-gradient-13);}</style><linearGradient id="linear-gradient" x1="115.77" y1="49.05" x2="115.77" y2="20.62" gradientUnits="userSpaceOnUse"><stop offset="0" stop-color="#fff"/><stop offset=".64" stop-color="#595959"/><stop offset="1" stop-color="#000"/></linearGradient><linearGradient id="linear-gradient-2" x1="87.26" x2="87.26" xlink:href="#linear-gradient"/><linearGradient id="linear-gradient-3" x1="22.5" y1="29.71" x2="25.73" y2="29.71" gradientUnits="userSpaceOnUse"><stop offset="0" stop-color="#956d29"/><stop offset="0" stop-color="#f9c960"/><stop offset=".22" stop-color="#f8c962"/><stop offset=".33" stop-color="#f8cb69"/><stop offset=".39" stop-color="#f8cd72"/><stop offset=".51" stop-color="#f1c66b"/><stop offset=".69" stop-color="#e0b558"/><stop offset=".83" stop-color="#cea345"/><stop offset="1" stop-color="#956e2a"/><stop offset="1" stop-color="#ecc772"/></linearGradient><linearGradient id="linear-gradient-4" x1="18.83" x2="22.06" xlink:href="#linear-gradient-3"/><linearGradient id="linear-gradient-5" x1="55.01" y1="47.34" x2="58.24" y2="47.34" xlink:href="#linear-gradient-3"/><linearGradient id="linear-gradient-6" x1="51.33" y1="47.34" x2="54.57" y2="47.34" xlink:href="#linear-gradient-3"/><linearGradient id="linear-gradient-7" x1="30.11" y1="47.34" x2="33.34" y2="47.34" xlink:href="#linear-gradient-3"/><linearGradient id="linear-gradient-8" x1="26.44" y1="47.34" x2="29.67" y2="47.34" xlink:href="#linear-gradient-3"/><linearGradient id="linear-gradient-9" x1="40.19" y1="47.34" x2="43.42" y2="47.34" xlink:href="#linear-gradient-3"/><linearGradient id="linear-gradient-10" x1="0" y1="38.28" x2="13.8" y2="38.28" xlink:href="#linear-gradient-3"/><linearGradient id="linear-gradient-11" x1="60.1" y1="38.04" x2="73.8" y2="38.04" xlink:href="#linear-gradient-3"/><linearGradient id="linear-gradient-12" x1="15.06" y1="36.5" x2="58.2" y2="36.5" xlink:href="#linear-gradient-3"/><linearGradient id="linear-gradient-13" x1="147.14" y1="21.81" x2="129.9" y2="4.57" gradientUnits="userSpaceOnUse"><stop offset="0" stop-color="#956d29"/><stop offset="0" stop-color="#f9c960"/><stop offset=".41" stop-color="#f8cd72"/><stop offset=".62" stop-color="#cea345"/><stop offset=".71" stop-color="#c99e42"/><stop offset=".82" stop-color="#ba913b"/><stop offset=".94" stop-color="#a37b30"/><stop offset="1" stop-color="#956e2a"/><stop offset="1" stop-color="#ecc772"/></linearGradient><linearGradient id="linear-gradient-14" x1="141.3" y1="28.13" x2="124.87" y2="11.69" xlink:href="#linear-gradient-13"/></defs><g class="cls-3"><g id="Layer_1"><path class="cls-7" d="m123.8,48.81c.03-.24-.49-.33-.79-.42-3.59-1.05-5.94-3.68-5.94-7.18,0-6.59,0-11.78-.06-18.41-.02-1.11.57-1.24,1.47-1.11,3.3.46,5.9,3,6.35,6.65.36,2.97.42,4.46.52,7.46.09,2.78-.3,2.71,2.67,2.7,1.73,0,3.25-.03,4.98.01.94.02,1.43-.3,1.38-1.31-.19-3.5-.02-7.02-.36-10.5-.33-3.45-2.71-6.41-6.11-7.09-1.39-.28-2.83-.47-4.25-.49-4.77-.05-9.53.02-14.3-.03-1.17-.01-1.6.38-1.59,1.54-.07,5.61,0,11.68,0,17.34,0,1.55.21,3.14.54,4.66.7,3.14,2.88,5.49,6,6.03,2.96.52,9.44.48,9.49.16Z"/><path class="cls-6" d="m107.77,20.62c-.07,5.61,0,11.68,0,17.34,0,1.55.21,3.14.54,4.66.7,3.14,2.88,5.49,6,6.03,2.96.52,9.44.48,9.49.16.03-.24-.49-.33-.79-.42-3.59-1.05-5.94-3.68-5.94-7.18,0-6.59,0-11.78-.06-18.41-.01-.79.27-1.21,1.37-1.14,0,0-2.19-.5-2.97-.58-2.83-.3-7.63-.46-7.63-.46Z"/><path class="cls-8" d="m95.31,48.81c.03-.24-.49-.33-.79-.42-3.59-1.05-5.94-3.68-5.94-7.18,0-6.59,0-11.78-.06-18.41-.02-1.11.57-1.24,1.47-1.11,3.3.46,5.9,3,6.35,6.65.36,2.97.42,4.46.52,7.46.09,2.78-.3,2.71,2.67,2.7,1.73,0,3.25-.03,4.98.01.94.02,1.43-.3,1.38-1.31-.19-3.5-.02-7.02-.36-10.5-.33-3.45-2.71-6.41-6.11-7.09-1.39-.28-2.83-.47-4.25-.49-4.77-.05-9.53.02-14.3-.03-1.17-.01-1.6.38-1.59,1.54-.07,5.61,0,11.68,0,17.34,0,1.55.21,3.14.54,4.66.7,3.14,2.88,5.49,6,6.03,2.96.52,9.44.48,9.49.16Z"/><path class="cls-8" d="m134.19,44.38c0-2.46-1.99-4.45-4.45-4.45s-4.45,1.99-4.45,4.45,1.99,4.45,4.45,4.45,4.45-1.99,4.45-4.45Z"/><path class="cls-8" d="m101.53,12.97c0-2.46-1.99-4.45-4.45-4.45s-4.45,1.99-4.45,4.45,1.99,4.45,4.45,4.45,4.45-1.99,4.45-4.45Z"/><path class="cls-8" d="m90.85,12.97c0-2.46-1.99-4.45-4.45-4.45s-4.45,1.99-4.45,4.45,1.99,4.45,4.45,4.45,4.45-1.99,4.45-4.45Z"/><path class="cls-9" d="m79.26,20.62c-.07,5.61,0,11.68,0,17.34,0,1.55.21,3.14.54,4.66.7,3.14,2.88,5.49,6,6.03,2.96.52,9.44.48,9.49.16.03-.24-.49-.33-.79-.42-3.59-1.05-5.94-3.68-5.94-7.18,0-6.59,0-11.78-.06-18.41-.01-.79.27-1.21,1.37-1.14,0,0-2.19-.5-2.97-.58-2.83-.3-7.63-.46-7.63-.46Z"/><path class="cls-13" d="m24.12,31.31c.89,0,1.62-.72,1.62-1.6s-.72-1.6-1.62-1.6-1.62.72-1.62,1.6.72,1.6,1.62,1.6Z"/><path class="cls-14" d="m20.45,31.31c.89,0,1.62-.72,1.62-1.6s-.72-1.6-1.62-1.6-1.62.72-1.62,1.6.72,1.6,1.62,1.6Z"/><path class="cls-10" d="m56.62,45.74c-.89,0-1.62.72-1.62,1.6s.72,1.6,1.62,1.6,1.62-.72,1.62-1.6-.72-1.6-1.62-1.6Z"/><path class="cls-2" d="m52.95,45.74c-.21,0-.41.04-.59.11-.6.23-1.02.81-1.02,1.49s.42,1.25,1.02,1.49c.18.07.38.11.59.11.89,0,1.62-.72,1.62-1.6s-.72-1.6-1.62-1.6Z"/><path class="cls-11" d="m31.73,45.74c-.89,0-1.62.72-1.62,1.6s.72,1.6,1.62,1.6,1.62-.72,1.62-1.6-.72-1.6-1.62-1.6Z"/><path class="cls-15" d="m28.05,45.74c-.89,0-1.62.72-1.62,1.6s.72,1.6,1.62,1.6,1.62-.72,1.62-1.6-.72-1.6-1.62-1.6Z"/><path class="cls-12" d="m41.8,45.74c-.89,0-1.62.72-1.62,1.6s.72,1.6,1.62,1.6,1.62-.72,1.62-1.6-.72-1.6-1.62-1.6Z"/><path class="cls-5" d="m11.13,31.14v10.4c0,2.31-1.9,4.18-4.23,4.18s-4.22-1.87-4.22-4.17c0-1.78,1.11-3.3,2.69-3.9v-2.77c-3.08.69-5.37,3.41-5.37,6.66,0,3.77,3.09,6.83,6.9,6.83s6.9-3.06,6.9-6.83v-13.36c-1.77.57-2.67,1.46-2.67,2.95Z"/><path class="cls-4" d="m66.97,31.27v-.03h-6.88c.62,1.75,1.59,2.72,3.21,2.73,1.12,0,2.55,0,3.71,0,2.33.03,4.2,1.76,4.2,4.07s-1.91,4.08-4.27,4.08h0c-1.26.05-2.53.11-3.79.14-1.78.04-2.45.62-3.02,2.57.53,0,6.81,0,6.81,0,3.78,0,6.85-3.04,6.85-6.79s-3.05-6.77-6.83-6.78Z"/><path class="cls-16" d="m51.37,44.82c3.76-.02,6.79-3.04,6.81-6.76h.03v-6.81c-1.77.61-2.75,1.57-2.75,3.18,0,1.11,0,2.52,0,3.67-.03,2.3-1.78,4.16-4.12,4.16h-.12v-4.08c0-3.77-3.09-6.83-6.9-6.83s-6.9,3.06-6.9,6.83c0,.38.03.76.09,1.12h2.75c-.1-.36-.16-.73-.16-1.12,0-2.31,1.89-4.17,4.21-4.17s4.21,1.87,4.21,4.17v4.08h-16.41c.93-1.15,1.49-2.61,1.49-4.2h.03v-6.81c-1.77.61-2.75,1.57-2.75,3.18,0,1.11,0,2.52,0,3.67-.03,2.3-1.78,4.16-4.12,4.16h-2.5c.93-1.15,1.49-2.61,1.49-4.2h.03v-6.81c-1.77.61-2.75,1.57-2.75,3.18,0,1.11,0,2.52,0,3.67-.03,2.3-1.78,4.16-4.12,4.16h-1.06c0-3.78,0-10.36,0-11.12,0-1.49-.99-2.39-2.76-2.95v16.64h36.3Z"/><path class="cls-17" d="m143.7,15.35l-.66-7.54-7.54.66-1.02-8.47-9.65,11.5s4.14.3,6.6,1.14c2.23.76,4.02,1.93,5.15,2.87,1.13.95,2.59,2.51,3.72,4.57,1.26,2.28,2.27,6.3,2.27,6.3l9.65-11.5-8.52.46Z"/><path class="cls-1" d="m123.59,12.97s4.14.3,6.6,1.15c2.23.76,4.02,1.93,5.15,2.87,1.13.95,2.59,2.51,3.72,4.57,1.25,2.28,2.27,6.3,2.27,6.3l-1.23,1.47s-1.02-4.02-2.27-6.3c-1.14-2.07-2.59-3.62-3.72-4.57-1.13-.95-2.92-2.11-5.15-2.87-2.46-.84-6.6-1.14-6.6-1.14l1.23-1.47Z"/></g></g></svg>