<?xml version="1.0" encoding="UTF-8"?><svg xmlns="http://www.w3.org/2000/svg" xmlns:xlink="http://www.w3.org/1999/xlink" viewBox="0 0 152.91 85.38"><defs><style>.p{fill:#487ebc;}.p,.q,.r,.s,.t,.u,.v,.w,.x,.y,.z,.aa,.ab,.ac,.ad,.ae,.af{stroke-width:0px;}.p,.s,.ab,.ad{fill-rule:evenodd;}.q{fill:url(#e);}.r{fill:url(#g);}.s{fill:#467ebe;}.t{fill:url(#i);}.ag{isolation:isolate;}.u{fill:url(#l);}.v{fill:url(#n);}.w{fill:url(#h);}.x{fill:url(#j);}.y{fill:url(#d);}.z{fill:#d9d9d9;}.aa{fill:url(#f);}.ab{fill:url(#c);}.ab,.ad{mix-blend-mode:multiply;opacity:.4;}.ac{fill:url(#m);}.ad{fill:url(#b);}.ae{fill:url(#k);}.af{fill:url(#o);}</style><linearGradient id="b" x1="116.47" y1="49.05" x2="116.47" y2="20.62" gradientUnits="userSpaceOnUse"><stop offset="0" stop-color="#fff"/><stop offset=".64" stop-color="#595959"/><stop offset="1" stop-color="#000"/></linearGradient><linearGradient id="c" x1="87.95" x2="87.95" xlink:href="#b"/><linearGradient id="d" x1="23.2" y1="29.71" x2="26.43" y2="29.71" gradientUnits="userSpaceOnUse"><stop offset="0" stop-color="#956d29"/><stop offset="0" stop-color="#f9c960"/><stop offset=".41" stop-color="#f8cd72"/><stop offset=".59" stop-color="#cea345"/><stop offset="1" stop-color="#956e2a"/><stop offset="1" stop-color="#ecc772"/></linearGradient><linearGradient id="e" x1="19.53" x2="22.76" xlink:href="#d"/><linearGradient id="f" x1="55.7" y1="47.34" x2="58.93" y2="47.34" xlink:href="#d"/><linearGradient id="g" x1="52.03" y1="47.34" x2="55.26" y2="47.34" xlink:href="#d"/><linearGradient id="h" x1="30.81" y1="47.34" x2="34.04" y2="47.34" xlink:href="#d"/><linearGradient id="i" x1="27.13" y1="47.34" x2="30.37" y2="47.34" xlink:href="#d"/><linearGradient id="j" x1="40.88" y1="47.34" x2="44.11" y2="47.34" xlink:href="#d"/><linearGradient id="k" x1=".69" y1="38.28" x2="14.5" y2="38.28" gradientUnits="userSpaceOnUse"><stop offset="0" stop-color="#956d29"/><stop offset="0" stop-color="#f9c960"/><stop offset=".23" stop-color="#956e2a"/><stop offset=".59" stop-color="#cea345"/><stop offset=".77" stop-color="#ebc36b"/><stop offset="1" stop-color="#ecc772"/></linearGradient><linearGradient id="l" x1="60.79" y1="38.04" x2="74.49" y2="38.04" xlink:href="#k"/><linearGradient id="m" x1="15.76" y1="36.5" x2="58.89" y2="36.5" gradientUnits="userSpaceOnUse"><stop offset="0" stop-color="#956d29"/><stop offset="0" stop-color="#f9c960"/><stop offset=".23" stop-color="#956e2a"/><stop offset=".41" stop-color="#f8cd72"/><stop offset=".59" stop-color="#cea345"/><stop offset=".77" stop-color="#ebc36b"/><stop offset="1" stop-color="#ecc772"/></linearGradient><linearGradient id="n" x1="147.83" y1="21.81" x2="130.6" y2="4.57" gradientUnits="userSpaceOnUse"><stop offset="0" stop-color="#956d29"/><stop offset="0" stop-color="#f9c960"/><stop offset=".41" stop-color="#f8cd72"/><stop offset=".62" stop-color="#cea345"/><stop offset=".71" stop-color="#c99e42"/><stop offset=".82" stop-color="#ba913b"/><stop offset=".94" stop-color="#a37b30"/><stop offset="1" stop-color="#956e2a"/><stop offset="1" stop-color="#ecc772"/></linearGradient><linearGradient id="o" x1="141.99" y1="28.13" x2="125.56" y2="11.69" xlink:href="#n"/></defs><g class="ag"><g id="a"><path class="s" d="m124.49,48.81c.03-.24-.49-.33-.79-.42-3.59-1.05-5.94-3.68-5.94-7.18,0-6.59,0-11.78-.06-18.41-.02-1.11.57-1.24,1.47-1.11,3.3.46,5.9,3,6.35,6.65.36,2.97.42,4.46.52,7.46.09,2.78-.3,2.71,2.67,2.7,1.73,0,3.25-.03,4.98.01.94.02,1.43-.3,1.38-1.31-.19-3.5-.02-7.02-.36-10.5-.33-3.45-2.71-6.41-6.11-7.09-1.39-.28-2.83-.47-4.25-.49-4.77-.05-9.53.02-14.3-.03-1.17-.01-1.6.38-1.59,1.54-.07,5.61,0,11.68,0,17.34,0,1.55.21,3.14.54,4.66.7,3.14,2.88,5.49,6,6.03,2.96.52,9.44.48,9.49.16Z"/><path class="ad" d="m108.47,20.62c-.07,5.61,0,11.68,0,17.34,0,1.55.21,3.14.54,4.66.7,3.14,2.88,5.49,6,6.03,2.96.52,9.44.48,9.49.16.03-.24-.49-.33-.79-.42-3.59-1.05-5.94-3.68-5.94-7.18,0-6.59,0-11.78-.06-18.41-.01-.79.27-1.21,1.37-1.14,0,0-2.19-.5-2.97-.58-2.83-.3-7.63-.46-7.63-.46Z"/><path class="p" d="m96.01,48.81c.03-.24-.49-.33-.79-.42-3.59-1.05-5.94-3.68-5.94-7.18,0-6.59,0-11.78-.06-18.41-.02-1.11.57-1.24,1.47-1.11,3.3.46,5.9,3,6.35,6.65.36,2.97.42,4.46.52,7.46.09,2.78-.3,2.71,2.67,2.7,1.73,0,3.25-.03,4.98.01.94.02,1.43-.3,1.38-1.31-.19-3.5-.02-7.02-.36-10.5-.33-3.45-2.71-6.41-6.11-7.09-1.39-.28-2.83-.47-4.25-.49-4.77-.05-9.53.02-14.3-.03-1.17-.01-1.6.38-1.59,1.54-.07,5.61,0,11.68,0,17.34,0,1.55.21,3.14.54,4.66.7,3.14,2.88,5.49,6,6.03,2.96.52,9.44.48,9.49.16Z"/><path class="p" d="m134.89,44.38c0-2.46-1.99-4.45-4.45-4.45s-4.45,1.99-4.45,4.45,1.99,4.45,4.45,4.45,4.45-1.99,4.45-4.45Z"/><path class="p" d="m102.22,12.97c0-2.46-1.99-4.45-4.45-4.45s-4.45,1.99-4.45,4.45,1.99,4.45,4.45,4.45,4.45-1.99,4.45-4.45Z"/><path class="p" d="m91.54,12.97c0-2.46-1.99-4.45-4.45-4.45s-4.45,1.99-4.45,4.45,1.99,4.45,4.45,4.45,4.45-1.99,4.45-4.45Z"/><path class="ab" d="m79.95,20.62c-.07,5.61,0,11.68,0,17.34,0,1.55.21,3.14.54,4.66.7,3.14,2.88,5.49,6,6.03,2.96.52,9.44.48,9.49.16.03-.24-.49-.33-.79-.42-3.59-1.05-5.94-3.68-5.94-7.18,0-6.59,0-11.78-.06-18.41-.01-.79.27-1.21,1.37-1.14,0,0-2.19-.5-2.97-.58-2.83-.3-7.63-.46-7.63-.46Z"/><path class="y" d="m24.81,31.31c.89,0,1.62-.72,1.62-1.6s-.72-1.6-1.62-1.6-1.62.72-1.62,1.6.72,1.6,1.62,1.6Z"/><path class="q" d="m21.14,31.31c.89,0,1.62-.72,1.62-1.6s-.72-1.6-1.62-1.6-1.62.72-1.62,1.6.72,1.6,1.62,1.6Z"/><path class="aa" d="m57.32,45.74c-.89,0-1.62.72-1.62,1.6s.72,1.6,1.62,1.6,1.62-.72,1.62-1.6-.72-1.6-1.62-1.6Z"/><path class="r" d="m53.64,45.74c-.21,0-.41.04-.59.11-.6.23-1.02.81-1.02,1.49s.42,1.25,1.02,1.49c.18.07.38.11.59.11.89,0,1.62-.72,1.62-1.6s-.72-1.6-1.62-1.6Z"/><path class="w" d="m32.42,45.74c-.89,0-1.62.72-1.62,1.6s.72,1.6,1.62,1.6,1.62-.72,1.62-1.6-.72-1.6-1.62-1.6Z"/><path class="t" d="m28.75,45.74c-.89,0-1.62.72-1.62,1.6s.72,1.6,1.62,1.6,1.62-.72,1.62-1.6-.72-1.6-1.62-1.6Z"/><path class="x" d="m42.5,45.74c-.89,0-1.62.72-1.62,1.6s.72,1.6,1.62,1.6,1.62-.72,1.62-1.6-.72-1.6-1.62-1.6Z"/><path class="ae" d="m11.83,31.14v10.4c0,2.31-1.9,4.18-4.23,4.18s-4.22-1.87-4.22-4.17c0-1.78,1.11-3.3,2.69-3.9v-2.77c-3.08.69-5.37,3.41-5.37,6.66,0,3.77,3.09,6.83,6.9,6.83s6.9-3.06,6.9-6.83v-13.36c-1.77.57-2.67,1.46-2.67,2.95Z"/><path class="u" d="m67.67,31.27v-.03h-6.88c.62,1.75,1.59,2.72,3.21,2.73,1.12,0,2.55,0,3.71,0,2.33.03,4.2,1.76,4.2,4.07s-1.91,4.08-4.27,4.08h0c-1.26.05-2.53.11-3.79.14-1.78.04-2.45.62-3.02,2.57.53,0,6.81,0,6.81,0,3.78,0,6.85-3.04,6.85-6.79s-3.05-6.77-6.83-6.78Z"/><path class="ac" d="m52.06,44.82c3.76-.02,6.79-3.04,6.81-6.76h.03v-6.81c-1.77.61-2.75,1.57-2.75,3.18,0,1.11,0,2.52,0,3.67-.03,2.3-1.78,4.16-4.12,4.16h-.12v-4.08c0-3.77-3.09-6.83-6.9-6.83s-6.9,3.06-6.9,6.83c0,.38.03.76.09,1.12h2.75c-.1-.36-.16-.73-.16-1.12,0-2.31,1.89-4.17,4.21-4.17s4.21,1.87,4.21,4.17v4.08h-16.41c.93-1.15,1.49-2.61,1.49-4.2h.03v-6.81c-1.77.61-2.75,1.57-2.75,3.18,0,1.11,0,2.52,0,3.67-.03,2.3-1.78,4.16-4.12,4.16h-2.5c.93-1.15,1.49-2.61,1.49-4.2h.03v-6.81c-1.77.61-2.75,1.57-2.75,3.18,0,1.11,0,2.52,0,3.67-.03,2.3-1.78,4.16-4.12,4.16h-1.06c0-3.78,0-10.36,0-11.12,0-1.49-.99-2.39-2.76-2.95v16.64h36.3Z"/><path class="v" d="m144.39,15.35l-.66-7.54-7.54.66-1.02-8.47-9.65,11.5s4.14.3,6.6,1.14c2.23.76,4.02,1.93,5.15,2.87,1.13.95,2.59,2.51,3.72,4.57,1.26,2.28,2.27,6.3,2.27,6.3l9.65-11.5-8.52.46Z"/><path class="af" d="m124.29,12.97s4.14.3,6.6,1.15c2.23.76,4.02,1.93,5.15,2.87,1.13.95,2.59,2.51,3.72,4.57,1.25,2.28,2.27,6.3,2.27,6.3l-1.23,1.47s-1.02-4.02-2.27-6.3c-1.14-2.07-2.59-3.62-3.72-4.57-1.13-.95-2.92-2.11-5.15-2.87-2.46-.84-6.6-1.14-6.6-1.14l1.23-1.47Z"/><path class="z" d="m50.11,74.28c-1.09.35-1.64.91-1.64,1.84v6.79s1.64,0,1.64,0v-8.63Z"/><path class="z" d="m52.74,78.28c0-2.35,0-6.44,0-6.92,0-.93-.61-1.49-1.7-1.84v10.35h1.71v-1.59Z"/><path class="z" d="m49.29,68.86c-.55,0-1,.45-1,1s.45,1,1,1,1-.45,1-1c0-.55-.44-1-1-1Z"/><path class="z" d="m41.46,68.86c-.55,0-1,.45-1,1s.45,1,1,1,1-.45,1-1-.45-1-1-1Z"/><path class="z" d="m32.12,80.51c-.55,0-1,.45-1,1s.45,1,1,1,1-.45,1-1-.45-1-1-1Z"/><path class="z" d="m29.69,80.51c-.55,0-1,.45-1,1s.45,1,1,1,1-.45,1-1-.45-1-1-1Z"/><path class="z" d="m41.29,71.45c-2.35,0-4.25,1.9-4.25,4.25,0,.24.02.47.06.7h1.69c-.06-.22-.1-.46-.1-.7,0-1.43,1.16-2.6,2.6-2.6s2.6,1.16,2.6,2.6v2.54h-7.55v-4c-1.09.35-1.64.91-1.64,1.84v2.64s0,1.11,0,1.11h0v3.09s1.64,0,1.64,0v-3.09s7.55,0,7.55,0h1.65v-4.13c0-2.35-1.9-4.25-4.25-4.25Z"/><path class="z" d="m32.03,73.32c0,.69,0,1.57,0,2.29-.02,1.43-1.1,2.59-2.54,2.59h-.85c.57-.72.91-1.63.91-2.62,0-2.33-1.88-4.21-4.21-4.22v-.02h-4.24c.38,1.09.98,1.7,1.98,1.7.69,0,1.57,0,2.29,0,1.43.02,2.59,1.1,2.59,2.54s-1.18,2.54-2.63,2.54h0c-.78.03-1.56.07-2.34.09-1.1.03-1.51.39-1.86,1.6.32,0,8.39,0,8.39,0,2.31-.01,4.19-1.89,4.19-4.21h0v-4.24c-1.09.38-1.68.98-1.68,1.98Z"/><path class="z" d="m72.12,83.24c.55,0,1-.45,1-1s-.45-1-1-1-1,.45-1,1,.45,1,1,1Z"/><path class="z" d="m74.54,83.24c.55,0,1-.45,1-1s-.45-1-1-1-1,.45-1,1,.45,1,1,1Z"/><path class="z" d="m73.33,85.38c.55,0,1-.45,1-1s-.45-1-1-1-1,.45-1,1c0,.55.45,1,1,1Z"/><path class="z" d="m76.54,73.42c0,.69,0,1.57,0,2.29-.02,1.43-1.1,2.59-2.54,2.59h-3.45c.57-.72.92-1.63.92-2.61h0v-4.24c-1.09.38-1.68.98-1.68,1.98,0,.69,0,1.57,0,2.29-.02,1.43-1.1,2.59-2.54,2.59h-.39c.57-.72.91-1.62.91-2.6h0v-4.24c-1.09.38-1.68.98-1.68,1.98,0,.69,0,1.57,0,2.29-.02,1.43-1.1,2.59-2.54,2.59h-.06v-6.78c-1.09.35-1.64.91-1.64,1.84v5c0,1.43-1.17,2.6-2.61,2.6s-2.6-1.16-2.6-2.6c0-1.11.68-2.05,1.66-2.42v-1.72c-1.9.43-3.31,2.12-3.31,4.15,0,2.35,1.9,4.25,4.25,4.25,1.81,0,3.35-1.13,3.96-2.72h10.82c2.31-.02,4.19-1.9,4.19-4.22h0v-4.24c-1.09.38-1.68.98-1.68,1.98Z"/><path class="z" d="m113.32,68.92c-.55,0-1,.45-1,1s.45,1,1,1,1-.45,1-1-.45-1-1-1Z"/><path class="z" d="m85.15,71.43c-.55,0-1,.45-1,1s.45,1,1,1,1-.45,1-1-.45-1-1-1Z"/><path class="z" d="m87.4,71.43c-.55,0-1,.45-1,1s.45,1,1,1,1-.45,1-1-.45-1-1-1Z"/><path class="z" d="m96.36,81.56c-.55,0-1,.45-1,1s.45,1,1,1,1-.45,1-1-.45-1-1-1Z"/><path class="z" d="m93.94,81.56c-.55,0-1,.45-1,1s.45,1,1,1,1-.45,1-1c0-.55-.45-1-1-1Z"/><path class="z" d="m120.9,74.28c-1.09.35-1.64.91-1.64,1.84v6.79s1.64,0,1.64,0v-8.63Z"/><path class="z" d="m114.2,71.5h-4.24c.33.96.84,1.54,1.64,1.67,0,.01-.02.02-.03.03l-4.32,5.06h-.84v-6.94c-1.09.35-1.64.91-1.64,1.84v5.1h-.75c-1.36-.07-2.51-1.19-2.53-2.58,0-.72,0-6.21,0-6.21-1.09.35-1.64.91-1.64,1.84v4.43c0,2.3,1.87,4.17,4.14,4.2,0,0,9.05,0,10.22,0h0c2.32,0,4.2-1.91,4.21-4.23,0-2.32-1.88-4.22-4.21-4.23Zm.03,6.76c-.33,0-2.54,0-4.81,0l4.31-5.06c.17,0,.34,0,.5,0,1.43.02,2.58,1.09,2.59,2.53,0,1.43-1.16,2.51-2.59,2.53Z"/><path class="z" d="m97.22,73.41c0,.69,0,1.57,0,2.29-.02,1.43-1.1,2.59-2.54,2.59h-.64c.57-.72.91-1.62.92-2.61h0v-4.24c-1.09.38-1.68.98-1.68,1.98,0,.69,0,1.57,0,2.29-.02,1.37-1.01,2.48-2.35,2.58-3.27,0-8.2,0-8.72,0-1.1.03-1.51.39-1.86,1.6.21,0,6.24,0,10.42,0h0s.03,0,.05,0c2.21,0,3.89,0,3.89,0,2.31-.01,4.19-1.89,4.19-4.21h0v-4.24c-1.09.38-1.68.98-1.68,1.97Z"/><rect class="z" y="59.41" width="142.03" height=".63"/></g></g></svg>