<?xml version="1.0" encoding="UTF-8"?><svg xmlns="http://www.w3.org/2000/svg" width="319.24" height="51.15" xmlns:xlink="http://www.w3.org/1999/xlink" viewBox="0 0 319.24 51.15"><defs><style>.cls-1{fill:url(#linear-gradient-14);}.cls-2{fill:url(#linear-gradient-6);}.cls-3{isolation:isolate;}.cls-4{fill:url(#linear-gradient-11);}.cls-5{fill:url(#linear-gradient-10);}.cls-6{fill:url(#linear-gradient);}.cls-6,.cls-7,.cls-8,.cls-9{fill-rule:evenodd;}.cls-6,.cls-9{mix-blend-mode:multiply;opacity:.4;}.cls-7{fill:#467ebe;}.cls-10{fill:url(#linear-gradient-5);}.cls-8{fill:#487ebc;}.cls-9{fill:url(#linear-gradient-2);}.cls-11{fill:url(#linear-gradient-7);}.cls-12{fill:url(#linear-gradient-9);}.cls-13{fill:url(#linear-gradient-3);}.cls-14{fill:#d9d9d9;}.cls-15{fill:url(#linear-gradient-4);}.cls-16{fill:url(#linear-gradient-8);}.cls-17{fill:url(#linear-gradient-12);}.cls-18{fill:url(#linear-gradient-13);}</style><linearGradient id="linear-gradient" x1="282.79" y1="49.05" x2="282.79" y2="20.62" gradientUnits="userSpaceOnUse"><stop offset="0" stop-color="#fff"/><stop offset=".64" stop-color="#595959"/><stop offset="1" stop-color="#000"/></linearGradient><linearGradient id="linear-gradient-2" x1="254.28" x2="254.28" xlink:href="#linear-gradient"/><linearGradient id="linear-gradient-3" x1="189.52" y1="29.71" x2="192.75" y2="29.71" gradientUnits="userSpaceOnUse"><stop offset="0" stop-color="#956d29"/><stop offset="0" stop-color="#f9c960"/><stop offset=".41" stop-color="#f8cd72"/><stop offset=".59" stop-color="#cea345"/><stop offset="1" stop-color="#956e2a"/><stop offset="1" stop-color="#ecc772"/></linearGradient><linearGradient id="linear-gradient-4" x1="185.85" x2="189.08" xlink:href="#linear-gradient-3"/><linearGradient id="linear-gradient-5" x1="222.03" y1="47.34" x2="225.26" y2="47.34" xlink:href="#linear-gradient-3"/><linearGradient id="linear-gradient-6" x1="218.35" y1="47.34" x2="221.59" y2="47.34" xlink:href="#linear-gradient-3"/><linearGradient id="linear-gradient-7" x1="197.13" y1="47.34" x2="200.36" y2="47.34" xlink:href="#linear-gradient-3"/><linearGradient id="linear-gradient-8" x1="193.46" y1="47.34" x2="196.69" y2="47.34" xlink:href="#linear-gradient-3"/><linearGradient id="linear-gradient-9" x1="207.21" y1="47.34" x2="210.44" y2="47.34" xlink:href="#linear-gradient-3"/><linearGradient id="linear-gradient-10" x1="167.02" y1="38.28" x2="180.82" y2="38.28" gradientUnits="userSpaceOnUse"><stop offset="0" stop-color="#956d29"/><stop offset="0" stop-color="#f9c960"/><stop offset=".23" stop-color="#956e2a"/><stop offset=".59" stop-color="#cea345"/><stop offset=".77" stop-color="#ebc36b"/><stop offset="1" stop-color="#ecc772"/></linearGradient><linearGradient id="linear-gradient-11" x1="227.12" y1="38.04" x2="240.82" y2="38.04" xlink:href="#linear-gradient-10"/><linearGradient id="linear-gradient-12" x1="182.08" y1="36.5" x2="225.22" y2="36.5" gradientUnits="userSpaceOnUse"><stop offset="0" stop-color="#956d29"/><stop offset="0" stop-color="#f9c960"/><stop offset=".23" stop-color="#956e2a"/><stop offset=".41" stop-color="#f8cd72"/><stop offset=".59" stop-color="#cea345"/><stop offset=".77" stop-color="#ebc36b"/><stop offset="1" stop-color="#ecc772"/></linearGradient><linearGradient id="linear-gradient-13" x1="314.16" y1="21.81" x2="296.92" y2="4.57" gradientUnits="userSpaceOnUse"><stop offset="0" stop-color="#956d29"/><stop offset="0" stop-color="#f9c960"/><stop offset=".41" stop-color="#f8cd72"/><stop offset=".62" stop-color="#cea345"/><stop offset=".71" stop-color="#c99e42"/><stop offset=".82" stop-color="#ba913b"/><stop offset=".94" stop-color="#a37b30"/><stop offset="1" stop-color="#956e2a"/><stop offset="1" stop-color="#ecc772"/></linearGradient><linearGradient id="linear-gradient-14" x1="308.32" y1="28.13" x2="291.89" y2="11.69" xlink:href="#linear-gradient-13"/></defs><g class="cls-3"><g id="Layer_1"><path class="cls-7" d="m290.82,48.81c.03-.24-.49-.33-.79-.42-3.59-1.05-5.94-3.68-5.94-7.18,0-6.59,0-11.78-.06-18.41-.02-1.11.57-1.24,1.47-1.11,3.3.46,5.9,3,6.35,6.65.36,2.97.42,4.46.52,7.46.09,2.78-.3,2.71,2.67,2.7,1.73,0,3.25-.03,4.98.01.94.02,1.43-.3,1.38-1.31-.19-3.5-.02-7.02-.36-10.5-.33-3.45-2.71-6.41-6.11-7.09-1.39-.28-2.83-.47-4.25-.49-4.77-.05-9.53.02-14.3-.03-1.17-.01-1.6.38-1.59,1.54-.07,5.61,0,11.68,0,17.34,0,1.55.21,3.14.54,4.66.7,3.14,2.88,5.49,6,6.03,2.96.52,9.44.48,9.49.16Z"/><path class="cls-6" d="m274.79,20.62c-.07,5.61,0,11.68,0,17.34,0,1.55.21,3.14.54,4.66.7,3.14,2.88,5.49,6,6.03,2.96.52,9.44.48,9.49.16.03-.24-.49-.33-.79-.42-3.59-1.05-5.94-3.68-5.94-7.18,0-6.59,0-11.78-.06-18.41-.01-.79.27-1.21,1.37-1.14,0,0-2.19-.5-2.97-.58-2.83-.3-7.63-.46-7.63-.46Z"/><path class="cls-8" d="m262.33,48.81c.03-.24-.49-.33-.79-.42-3.59-1.05-5.94-3.68-5.94-7.18,0-6.59,0-11.78-.06-18.41-.02-1.11.57-1.24,1.47-1.11,3.3.46,5.9,3,6.35,6.65.36,2.97.42,4.46.52,7.46.09,2.78-.3,2.71,2.67,2.7,1.73,0,3.25-.03,4.98.01.94.02,1.43-.3,1.38-1.31-.19-3.5-.02-7.02-.36-10.5-.33-3.45-2.71-6.41-6.11-7.09-1.39-.28-2.83-.47-4.25-.49-4.77-.05-9.53.02-14.3-.03-1.17-.01-1.6.38-1.59,1.54-.07,5.61,0,11.68,0,17.34,0,1.55.21,3.14.54,4.66.7,3.14,2.88,5.49,6,6.03,2.96.52,9.44.48,9.49.16Z"/><path class="cls-8" d="m301.21,44.38c0-2.46-1.99-4.45-4.45-4.45s-4.45,1.99-4.45,4.45,1.99,4.45,4.45,4.45,4.45-1.99,4.45-4.45Z"/><path class="cls-8" d="m268.55,12.97c0-2.46-1.99-4.45-4.45-4.45s-4.45,1.99-4.45,4.45,1.99,4.45,4.45,4.45,4.45-1.99,4.45-4.45Z"/><path class="cls-8" d="m257.87,12.97c0-2.46-1.99-4.45-4.45-4.45s-4.45,1.99-4.45,4.45,1.99,4.45,4.45,4.45,4.45-1.99,4.45-4.45Z"/><path class="cls-9" d="m246.28,20.62c-.07,5.61,0,11.68,0,17.34,0,1.55.21,3.14.54,4.66.7,3.14,2.88,5.49,6,6.03,2.96.52,9.44.48,9.49.16.03-.24-.49-.33-.79-.42-3.59-1.05-5.94-3.68-5.94-7.18,0-6.59,0-11.78-.06-18.41-.01-.79.27-1.21,1.37-1.14,0,0-2.19-.5-2.97-.58-2.83-.3-7.63-.46-7.63-.46Z"/><path class="cls-13" d="m191.14,31.31c.89,0,1.62-.72,1.62-1.6s-.72-1.6-1.62-1.6-1.62.72-1.62,1.6.72,1.6,1.62,1.6Z"/><path class="cls-15" d="m187.47,31.31c.89,0,1.62-.72,1.62-1.6s-.72-1.6-1.62-1.6-1.62.72-1.62,1.6.72,1.6,1.62,1.6Z"/><path class="cls-10" d="m223.64,45.74c-.89,0-1.62.72-1.62,1.6s.72,1.6,1.62,1.6,1.62-.72,1.62-1.6-.72-1.6-1.62-1.6Z"/><path class="cls-2" d="m219.97,45.74c-.21,0-.41.04-.59.11-.6.23-1.02.81-1.02,1.49s.42,1.25,1.02,1.49c.18.07.38.11.59.11.89,0,1.62-.72,1.62-1.6s-.72-1.6-1.62-1.6Z"/><path class="cls-11" d="m198.75,45.74c-.89,0-1.62.72-1.62,1.6s.72,1.6,1.62,1.6,1.62-.72,1.62-1.6-.72-1.6-1.62-1.6Z"/><path class="cls-16" d="m195.08,45.74c-.89,0-1.62.72-1.62,1.6s.72,1.6,1.62,1.6,1.62-.72,1.62-1.6-.72-1.6-1.62-1.6Z"/><path class="cls-12" d="m208.82,45.74c-.89,0-1.62.72-1.62,1.6s.72,1.6,1.62,1.6,1.62-.72,1.62-1.6-.72-1.6-1.62-1.6Z"/><path class="cls-5" d="m178.15,31.14v10.4c0,2.31-1.9,4.18-4.23,4.18s-4.22-1.87-4.22-4.17c0-1.78,1.11-3.3,2.69-3.9v-2.77c-3.08.69-5.37,3.41-5.37,6.66,0,3.77,3.09,6.83,6.9,6.83s6.9-3.06,6.9-6.83v-13.36c-1.77.57-2.67,1.46-2.67,2.95Z"/><path class="cls-4" d="m233.99,31.27v-.03h-6.88c.62,1.75,1.59,2.72,3.21,2.73,1.12,0,2.55,0,3.71,0,2.33.03,4.2,1.76,4.2,4.07s-1.91,4.08-4.27,4.08h0c-1.26.05-2.53.11-3.79.14-1.78.04-2.45.62-3.02,2.57.53,0,6.81,0,6.81,0,3.78,0,6.85-3.04,6.85-6.79s-3.05-6.77-6.83-6.78Z"/><path class="cls-17" d="m218.39,44.82c3.76-.02,6.79-3.04,6.81-6.76h.03v-6.81c-1.77.61-2.75,1.57-2.75,3.18,0,1.11,0,2.52,0,3.67-.03,2.3-1.78,4.16-4.12,4.16h-.12v-4.08c0-3.77-3.09-6.83-6.9-6.83s-6.9,3.06-6.9,6.83c0,.38.03.76.09,1.12h2.75c-.1-.36-.16-.73-.16-1.12,0-2.31,1.89-4.17,4.21-4.17s4.21,1.87,4.21,4.17v4.08h-16.41c.93-1.15,1.49-2.61,1.49-4.2h.03v-6.81c-1.77.61-2.75,1.57-2.75,3.18,0,1.11,0,2.52,0,3.67-.03,2.3-1.78,4.16-4.12,4.16h-2.5c.93-1.15,1.49-2.61,1.49-4.2h.03v-6.81c-1.77.61-2.75,1.57-2.75,3.18,0,1.11,0,2.52,0,3.67-.03,2.3-1.78,4.16-4.12,4.16h-1.06c0-3.78,0-10.36,0-11.12,0-1.49-.99-2.39-2.76-2.95v16.64h36.3Z"/><path class="cls-18" d="m310.72,15.35l-.66-7.54-7.54.66-1.02-8.47-9.65,11.5s4.14.3,6.6,1.14c2.23.76,4.02,1.93,5.15,2.87,1.13.95,2.59,2.51,3.72,4.57,1.26,2.28,2.27,6.3,2.27,6.3l9.65-11.5-8.52.46Z"/><path class="cls-1" d="m290.61,12.97s4.14.3,6.6,1.15c2.23.76,4.02,1.93,5.15,2.87,1.13.95,2.59,2.51,3.72,4.57,1.25,2.28,2.27,6.3,2.27,6.3l-1.23,1.47s-1.02-4.02-2.27-6.3c-1.14-2.07-2.59-3.62-3.72-4.57-1.13-.95-2.92-2.11-5.15-2.87-2.46-.84-6.6-1.14-6.6-1.14l1.23-1.47Z"/><path class="cls-14" d="m39.37,36.07c-1.48.48-2.22,1.23-2.23,2.5v9.22s2.23,0,2.23,0v-11.72Z"/><path class="cls-14" d="m42.95,41.5c0-3.19,0-8.75,0-9.4,0-1.26-.83-2.02-2.31-2.5v14.06h2.32v-2.16Z"/><path class="cls-14" d="m38.26,28.72c-.75,0-1.35.61-1.35,1.35s.61,1.35,1.35,1.35,1.35-.61,1.35-1.35c0-.75-.6-1.35-1.35-1.35Z"/><path class="cls-14" d="m27.64,28.72c-.75,0-1.35.61-1.35,1.35s.61,1.35,1.35,1.35,1.35-.61,1.35-1.35-.61-1.35-1.35-1.35Z"/><path class="cls-14" d="m14.95,44.53c-.75,0-1.35.61-1.35,1.35s.61,1.35,1.35,1.35,1.35-.61,1.35-1.35-.61-1.35-1.35-1.35Z"/><path class="cls-14" d="m11.66,44.53c-.75,0-1.35.61-1.35,1.35s.61,1.35,1.35,1.35,1.35-.61,1.35-1.35-.61-1.35-1.35-1.35Z"/><path class="cls-14" d="m27.41,32.22c-3.19,0-5.77,2.59-5.77,5.77,0,.32.03.64.08.95h2.3c-.08-.3-.13-.62-.13-.95,0-1.95,1.58-3.53,3.52-3.53s3.52,1.58,3.52,3.53v3.45h-10.25v-5.43c-1.48.48-2.23,1.23-2.23,2.5v3.59s0,1.51,0,1.51h0v4.2s2.23,0,2.23,0v-4.2s10.25,0,10.25,0h2.25v-5.61c0-3.19-2.58-5.77-5.77-5.77Z"/><path class="cls-14" d="m14.83,34.76c0,.94,0,2.13,0,3.1-.03,1.95-1.49,3.51-3.44,3.51h-1.16c.78-.98,1.24-2.21,1.24-3.56,0-3.16-2.56-5.72-5.71-5.73v-.02H0c.52,1.48,1.33,2.3,2.68,2.3.94,0,2.13,0,3.1,0,1.95.03,3.51,1.49,3.51,3.44s-1.6,3.44-3.57,3.44h0c-1.06.04-2.11.09-3.17.12-1.49.04-2.05.52-2.53,2.17.44,0,11.39,0,11.39,0,3.14-.02,5.68-2.57,5.69-5.71h0v-5.75c-1.48.51-2.28,1.33-2.28,2.68Z"/><path class="cls-14" d="m69.27,48.24c.75,0,1.35-.61,1.35-1.35s-.61-1.35-1.35-1.35-1.35.61-1.35,1.35.61,1.35,1.35,1.35Z"/><path class="cls-14" d="m72.55,48.24c.75,0,1.35-.61,1.35-1.35s-.61-1.35-1.35-1.35-1.35.61-1.35,1.35.61,1.35,1.35,1.35Z"/><path class="cls-14" d="m70.91,51.15c.75,0,1.35-.61,1.35-1.35s-.61-1.35-1.35-1.35-1.35.61-1.35,1.35c0,.75.61,1.35,1.35,1.35Z"/><path class="cls-14" d="m75.27,34.91c0,.94,0,2.13,0,3.1-.03,1.95-1.49,3.51-3.44,3.51h-4.68c.78-.97,1.24-2.21,1.25-3.55h0v-5.75c-1.48.52-2.28,1.33-2.28,2.68,0,.94,0,2.13,0,3.1-.03,1.95-1.49,3.51-3.44,3.51h-.52c.77-.97,1.23-2.2,1.24-3.54h0v-5.75c-1.48.52-2.28,1.33-2.28,2.68,0,.94,0,2.13,0,3.1-.03,1.95-1.49,3.51-3.44,3.51h-.08v-9.21c-1.48.48-2.23,1.23-2.23,2.5v6.79c0,1.95-1.59,3.53-3.54,3.53s-3.53-1.58-3.53-3.53c0-1.5.93-2.78,2.25-3.29v-2.34c-2.57.58-4.5,2.88-4.5,5.63,0,3.19,2.59,5.77,5.77,5.77,2.45,0,4.55-1.53,5.38-3.69h14.69c3.14-.03,5.68-2.58,5.69-5.72h0v-5.75c-1.48.51-2.28,1.33-2.28,2.68Z"/><path class="cls-14" d="m125.21,28.8c-.75,0-1.35.61-1.35,1.35s.61,1.35,1.35,1.35,1.35-.61,1.35-1.35-.61-1.35-1.35-1.35Z"/><path class="cls-14" d="m86.96,32.2c-.75,0-1.35.61-1.35,1.35s.61,1.35,1.35,1.35,1.35-.61,1.35-1.35-.61-1.35-1.35-1.35Z"/><path class="cls-14" d="m90.02,32.2c-.75,0-1.35.61-1.35,1.35s.61,1.35,1.35,1.35,1.35-.61,1.35-1.35-.61-1.35-1.35-1.35Z"/><path class="cls-14" d="m102.18,45.96c-.75,0-1.35.61-1.35,1.35s.61,1.35,1.35,1.35,1.35-.61,1.35-1.35-.61-1.35-1.35-1.35Z"/><path class="cls-14" d="m98.89,45.96c-.75,0-1.35.61-1.35,1.35s.61,1.35,1.35,1.35,1.35-.61,1.35-1.35c0-.75-.61-1.35-1.35-1.35Z"/><path class="cls-14" d="m135.5,36.07c-1.48.48-2.22,1.23-2.23,2.5v9.22s2.23,0,2.23,0v-11.72Z"/><path class="cls-14" d="m126.41,32.29h-5.75c.45,1.3,1.14,2.09,2.22,2.27-.01.01-.02.03-.04.04l-5.86,6.87h-1.14v-9.42c-1.48.48-2.23,1.23-2.23,2.5v6.92h-1.02c-1.85-.09-3.41-1.61-3.44-3.5,0-.97-.01-8.43-.01-8.43-1.48.48-2.22,1.23-2.23,2.5v6.02c.01,3.13,2.54,5.66,5.63,5.71,0,0,12.29.01,13.87.01h0c3.15-.01,5.71-2.59,5.71-5.74,0-3.15-2.56-5.73-5.71-5.74Zm.03,9.17c-.45,0-3.44,0-6.53,0l5.86-6.87c.23,0,.46,0,.68,0,1.94.03,3.51,1.49,3.51,3.43,0,1.95-1.57,3.41-3.51,3.43Z"/><path class="cls-14" d="m103.35,34.89c0,.94,0,2.13,0,3.1-.03,1.95-1.49,3.51-3.44,3.51h-.87c.77-.97,1.24-2.2,1.24-3.54h0v-5.75c-1.48.52-2.28,1.33-2.28,2.68,0,.94,0,2.13,0,3.1-.03,1.86-1.37,3.37-3.19,3.5-4.44,0-11.14,0-11.84,0-1.49.04-2.05.52-2.53,2.17.29,0,8.47,0,14.15,0h0s.04,0,.07,0c3,0,5.29,0,5.29,0,3.14-.02,5.68-2.57,5.69-5.71h0v-5.75c-1.48.51-2.28,1.32-2.28,2.68Z"/><rect class="cls-14" x="143.99" y="34.9" width="15.83" height="2.91"/></g></g></svg>